<svg width="26" height="52" viewBox="0 0 26 52" fill="none" xmlns="http://www.w3.org/2000/svg">
<path d="M26 0C22.5856 1.49247e-07 19.2047 0.67251 16.0502 1.97913C12.8958 3.28576 10.0295 5.2009 7.61522 7.61522C5.2009 10.0295 3.28575 12.8958 1.97913 16.0502C0.672509 19.2047 -2.98493e-07 22.5856 0 26C2.98494e-07 29.4144 0.672511 32.7953 1.97913 35.9498C3.28576 39.1042 5.2009 41.9705 7.61523 44.3848C10.0295 46.7991 12.8958 48.7142 16.0502 50.0209C19.2047 51.3275 22.5856 52 26 52L26 46.8C23.2685 46.8 20.5638 46.262 18.0402 45.2167C15.5166 44.1714 13.2236 42.6393 11.2922 40.7078C9.36072 38.7764 7.8286 36.4834 6.78331 33.9598C5.73801 31.4362 5.2 28.7315 5.2 26C5.2 23.2685 5.73801 20.5638 6.7833 18.0402C7.8286 15.5166 9.36072 13.2236 11.2922 11.2922C13.2236 9.36072 15.5166 7.8286 18.0402 6.78331C20.5638 5.73801 23.2685 5.2 26 5.2L26 0Z" fill="#FF7D0B"/>
</svg>
