<svg width="27" height="52" viewBox="0 0 27 52" fill="none" xmlns="http://www.w3.org/2000/svg">
<path d="M0.516672 0C3.93104 4.71053e-07 7.31198 0.672511 10.4664 1.97913C13.6209 3.28576 16.4871 5.2009 18.9014 7.61523C21.3158 10.0296 23.2309 12.8958 24.5375 16.0502C25.8442 19.2047 26.5167 22.5856 26.5167 26C26.5167 29.4144 25.8442 32.7953 24.5375 35.9498C23.2309 39.1042 21.3158 41.9705 18.9014 44.3848C16.4871 46.7991 13.6209 48.7142 10.4664 50.0209C7.31197 51.3275 3.93103 52 0.516663 52L0.516664 46.8C3.24816 46.8 5.95291 46.262 8.47648 45.2167C11.0001 44.1714 13.293 42.6393 15.2245 40.7078C17.1559 38.7764 18.6881 36.4834 19.7334 33.9598C20.7787 31.4362 21.3167 28.7315 21.3167 26C21.3167 23.2685 20.7787 20.5638 19.7334 18.0402C18.6881 15.5166 17.156 13.2236 15.2245 11.2922C13.293 9.36072 11.0001 7.8286 8.47649 6.78331C5.95291 5.73801 3.24817 5.2 0.516671 5.2L0.516672 0Z" fill="#414141"/>
</svg>
